<svg width="109" height="111" viewBox="0 0 109 111" fill="none" xmlns="http://www.w3.org/2000/svg">
<rect y="5.7265" width="109" height="105.274" rx="23" fill="#28BE52"/>
<path d="M69.56 23.44L69.464 57.904V79.984C69.464 84.336 69.912 86.896 70.808 87.664C71.32 88.048 71.992 88.24 72.824 88.24L76.088 87.952C76.6 87.952 76.856 88.432 76.856 89.392C76.856 90.288 76.664 90.768 76.28 90.832C71.992 91.536 68.44 92.72 65.624 94.384C64.728 94.96 64.152 95.248 63.896 95.248C62.552 95.248 61.752 92.848 61.496 88.048H61.304C57.464 92.848 52.152 95.248 45.368 95.248C39.608 95.248 35.064 93.36 31.736 89.584C28.408 85.744 26.744 80.656 26.744 74.32C26.744 67.92 28.92 62.416 33.272 57.808C37.688 53.136 42.936 50.8 49.016 50.8C53.56 50.8 57.656 52.208 61.304 55.024V37.936C61.304 31.728 60.504 28.624 58.904 28.624H54.584C54.072 28.624 53.816 28.144 53.816 27.184C53.816 26.224 54.008 25.744 54.392 25.744C57.016 25.744 59.128 25.52 60.728 25.072C62.328 24.56 63.448 24.208 64.088 24.016C64.728 23.76 65.496 23.44 66.392 23.056C67.352 22.608 67.928 22.352 68.12 22.288C69.08 22.288 69.56 22.672 69.56 23.44ZM49.304 54.256C44.952 54.256 41.688 56.144 39.512 59.92C37.4 63.632 36.344 67.856 36.344 72.592C36.344 77.328 37.656 81.328 40.28 84.592C42.904 87.792 46.456 89.392 50.936 89.392C54.008 89.392 56.472 88.688 58.328 87.28C59.288 86.64 59.992 86.128 60.44 85.744C60.888 85.296 61.176 85.04 61.304 84.976V67.792C60.536 58.768 56.536 54.256 49.304 54.256Z" fill="white"/>
</svg>
